HIERARCHY
ROOT Hips
{
	OFFSET 0.0000 0.0000 0.0000
	CHANNELS 6 Xposition Yposition Zposition Zrotation Xrotation Yrotation
	JOINT Ab
	{
		OFFSET -0.0000 8.0846 -0.0000
		CHANNELS 3 Zrotation Xrotation Yrotation
		JOINT Chest
		{
			OFFSET -0.0000 25.0068 -0.0000
			CHANNELS 3 Zrotation Xrotation Yrotation
			JOINT Neck
			{
				OFFSET -0.0000 25.0068 0.0000
				CHANNELS 3 Zrotation Xrotation Yrotation
				JOINT Head
				{
					OFFSET -0.0000 10.7556 0.0000
					CHANNELS 3 Zrotation Xrotation Yrotation
					End Site
					{
						OFFSET -0.0000 16.6222 0.0000
					}
				}
			}
			JOINT LeftCollar
			{
				OFFSET -0.0000 25.0068 0.0000
				CHANNELS 3 Zrotation Xrotation Yrotation
				JOINT LeftShoulder
				{
					OFFSET 19.5556 -0.0000 0.0000
					CHANNELS 3 Zrotation Xrotation Yrotation
					JOINT LeftElbow
					{
						OFFSET 27.1828 0.0000 0.0000
						CHANNELS 3 Zrotation Xrotation Yrotation
						JOINT LeftWrist
						{
							OFFSET 23.3157 0.0000 0.0000
							CHANNELS 3 Zrotation Xrotation Yrotation
							End Site
							{
								OFFSET 0.0000 -14.6667 0.0000
							}
						}
					}
				}
			}
			JOINT RightCollar
			{
				OFFSET -0.0000 25.0068 0.0000
				CHANNELS 3 Zrotation Xrotation Yrotation
				JOINT RightShoulder
				{
					OFFSET -19.5556 0.0000 0.0000
					CHANNELS 3 Zrotation Xrotation Yrotation
					JOINT RightElbow
					{
						OFFSET -27.1828 0.0000 0.0000
						CHANNELS 3 Zrotation Xrotation Yrotation
						JOINT RightWrist
						{
							OFFSET -23.3157 0.0000 0.0000
							CHANNELS 3 Zrotation Xrotation Yrotation
							End Site
							{
								OFFSET -0.0000 -14.6667 0.0000
							}
						}
					}
				}
			}
		}
	}
	JOINT LeftHip
	{
		OFFSET 11.7333 0.0000 0.0000
		CHANNELS 3 Zrotation Xrotation Yrotation
		JOINT LeftKnee
		{
			OFFSET -0.0000 -40.8688 0.0000
			CHANNELS 3 Zrotation Xrotation Yrotation
			JOINT LeftAnkle
			{
				OFFSET -0.0000 -44.4337 0.0000
				CHANNELS 3 Zrotation Xrotation Yrotation
				End Site
				{
					OFFSET -0.0000 -4.8889 16.6222
				}
			}
		}
	}
	JOINT RightHip
	{
		OFFSET -11.7333 0.0000 0.0000
		CHANNELS 3 Zrotation Xrotation Yrotation
		JOINT RightKnee
		{
			OFFSET -0.0000 -40.8688 0.0000
			CHANNELS 3 Zrotation Xrotation Yrotation
			JOINT RightAnkle
			{
				OFFSET -0.0000 -44.4337 0.0000
				CHANNELS 3 Zrotation Xrotation Yrotation
				End Site
				{
					OFFSET -0.0000 -4.8889 16.6222
				}
			}
		}
	}
}
MOTION
Frames: 21
Frame Time: 0.010000
-1.3941 88.6753 189.7475 2.3882 359.3423 176.7165 2.6930 359.4359 358.1338 358.3206 9.4557 358.2599 358.8732 342.6908 0.7873 5.1714 9.7240 0.5179 338.8541 358.3722 8.6687 299.3054 28.2659 357.9156 16.2598 354.3540 321.9693 81.9646 0.3061 339.3346 22.9573 359.0030 355.0391 57.2780 44.9343 8.3053 339.0412 353.9031 32.2021 276.3433 352.8165 21.6712 2.4363 358.3130 357.5671 359.3955 10.6478 357.0363 357.0390 350.8855 22.2116 1.2292 351.8456 359.7996 358.5476 19.9519 10.2528 355.8773 344.3418 336.5251 
-1.4080 88.6758 189.7287 2.3782 359.3275 176.7001 2.6911 359.4597 358.1413 358.3165 9.4552 358.2680 358.7855 342.6659 0.7602 5.2616 9.7502 0.4946 338.8446 358.3745 8.7309 299.3318 28.2529 357.9081 16.2326 354.3719 321.9903 82.0067 0.2861 339.3691 22.9569 359.0194 355.0912 57.1637 45.0181 8.4146 339.0199 353.8502 32.3013 276.3598 352.7757 21.6334 2.4180 358.3020 357.6524 359.4007 10.6710 356.9684 355.2642 350.5383 21.8789 1.2071 351.8475 359.8150 358.5536 19.9408 10.2639 355.8141 344.3463 336.5134 
-1.4183 88.6770 189.7109 2.3722 359.3125 176.6788 2.6814 359.4737 358.1494 358.3228 9.4807 358.2762 358.7476 342.6316 0.7335 5.2632 9.7590 0.4745 338.8423 358.3683 8.7618 299.3479 28.2488 357.9070 16.2438 354.3833 321.9958 82.0352 0.2297 339.3894 22.9529 359.0046 355.1105 57.0115 45.1582 8.5914 338.9560 353.8255 32.4225 276.3458 352.8430 21.6695 2.4090 358.2903 357.6394 359.3909 10.6972 356.9751 356.9726 350.8171 22.2199 1.1927 351.8458 359.8501 358.5624 19.9348 10.2784 355.8064 344.3398 336.4911 
-1.4293 88.6791 189.6916 2.3721 359.3007 176.6693 2.6604 359.4911 358.1706 358.3493 9.5124 358.2965 358.6659 342.5670 0.6762 5.3032 9.8197 0.4190 338.8409 358.3764 8.7526 299.3628 28.1686 357.9227 16.2012 354.3940 321.9635 81.9752 0.2765 339.2915 22.9287 358.9987 355.1008 56.8759 45.2576 8.7745 338.9539 353.7963 32.5353 276.2724 352.8600 21.7069 2.4027 358.2844 357.6480 359.3892 10.7150 356.9545 355.4850 350.5212 21.9500 1.1860 351.8606 359.8725 358.5727 19.9043 10.2302 355.8266 344.3366 336.5222 
-1.4385 88.6804 189.6691 2.3756 359.2917 176.6628 2.6214 359.4953 358.1830 358.4253 9.5730 358.3032 358.5397 342.4849 0.6177 5.3770 9.8910 0.3748 338.8398 358.3664 8.7146 299.3372 28.0326 357.9603 16.1557 354.4065 321.9226 81.8949 0.2503 339.1486 22.8798 359.0048 355.0931 56.7110 45.3741 8.9892 338.9260 353.7681 32.6239 276.2604 352.7447 21.7140 2.4067 358.2921 357.6117 359.3689 10.7157 356.9622 356.8830 350.7284 22.2370 1.1847 351.8828 359.8847 358.5741 19.8717 10.1960 355.8406 344.3271 336.5478 
-1.4515 88.6824 189.6501 2.3697 359.2741 176.6630 2.5937 359.5060 358.1717 358.4744 9.5816 358.2892 358.4519 342.5342 0.5993 5.4367 9.8161 0.3691 338.8218 358.3804 8.6673 299.3231 27.7814 358.0225 16.0088 354.4839 321.9063 81.9165 0.2081 338.9749 22.8632 359.0251 355.1222 56.5228 45.4857 9.1844 338.9226 353.7494 32.7349 276.1931 352.7723 21.6612 2.3952 358.2849 357.6180 359.3616 10.7181 356.9545 355.6440 350.5010 22.0104 1.1647 351.8955 359.9100 358.5873 19.8411 10.2176 355.8467 344.3160 336.5084 
-1.4637 88.6850 189.6267 2.3676 359.2573 176.6522 2.5687 359.5459 358.1988 358.4924 9.5531 358.3150 358.4379 342.5463 0.5840 5.4402 9.7965 0.3576 338.8217 358.3627 8.6550 299.3139 27.6854 358.0945 16.0117 354.4449 321.8193 81.6806 0.3235 338.7909 22.8546 359.0245 355.1337 56.4091 45.6348 9.3448 338.8192 353.6989 32.7941 276.1595 352.6355 21.6974 2.3895 358.2867 357.6206 359.3528 10.7204 356.9576 356.7912 350.7026 22.2212 1.1532 351.9056 359.9512 358.6049 19.8198 10.1964 355.8233 344.2956 336.4873 
-1.4780 88.6869 189.6048 2.3631 359.2276 176.6394 2.5457 359.5714 358.2276 358.5050 9.5411 358.3430 358.4294 342.5287 0.5492 5.4364 9.7923 0.3232 338.8239 358.3754 8.6394 299.3217 27.5957 358.1165 15.8827 354.4919 321.8687 81.9481 0.2188 338.7533 22.8548 359.0053 355.1050 56.2540 45.7898 9.5455 338.7371 353.6485 32.8586 276.0986 352.4793 21.7093 2.3862 358.2730 357.5872 359.3248 10.7222 356.9728 355.7040 350.4755 22.0531 1.1373 351.8967 359.9716 358.6079 19.8100 10.2282 355.8458 344.2698 336.4697 
-1.4917 88.6887 189.5837 2.3587 359.1908 176.6505 2.5314 359.5820 358.2317 358.5138 9.5532 358.3471 358.4052 342.4903 0.5196 5.4522 9.8037 0.2971 338.8322 358.3787 8.6496 299.3385 27.6393 358.0961 15.8949 354.4758 321.9201 82.0047 0.1509 338.7671 22.8621 359.0135 355.0658 56.0269 45.8716 9.8000 338.7541 353.6448 33.0094 276.1174 352.4595 21.7787 2.3800 358.2322 357.5500 359.3072 10.7533 356.9687 356.7949 350.6552 22.2793 1.1212 351.8850 359.9789 358.6162 19.7958 10.2482 355.9356 344.1844 336.4527 
-1.5096 88.6907 189.5592 2.3448 359.1523 176.6573 2.5155 359.6063 358.2344 358.5164 9.5199 358.3499 358.3722 342.5012 0.5034 5.4774 9.8017 0.2823 338.8351 358.3671 8.6655 299.3224 27.6238 358.1269 15.9278 354.4796 321.9555 81.9643 0.1101 338.7429 22.8753 358.9938 355.0583 55.8403 45.9827 9.9873 338.6914 353.5802 33.1849 276.1470 352.4893 21.7748 2.3603 358.2029 357.5118 359.2931 10.7659 356.9452 355.9807 350.4607 22.1730 1.0886 351.8657 0.0049 358.6359 19.7994 10.2579 355.9473 344.1259 336.4231 
-1.5275 88.6938 189.5333 2.3330 359.1141 176.6542 2.4863 359.6205 358.2416 358.5346 9.5127 358.3556 358.3266 342.4698 0.4786 5.4951 9.8455 0.2608 338.8333 358.3606 8.6775 299.3119 27.5405 358.1529 15.9179 354.4817 321.9501 81.8222 0.1573 338.6023 22.8736 359.0027 355.0861 55.7115 46.0769 10.1449 338.6431 353.5315 33.3177 276.1114 352.4534 21.7640 2.3428 358.1746 357.4906 359.2801 10.7840 356.9336 356.6555 350.5235 22.3131 1.0596 351.8521 0.0627 358.6613 19.7834 10.1843 355.9965 344.0682 336.4510 
-1.5505 88.6970 189.5120 2.3133 359.0557 176.6607 2.4420 359.6237 358.2442 358.5740 9.5019 358.3555 358.2421 342.4003 0.4406 5.5427 9.9444 0.2251 338.8215 358.3849 8.6777 299.3108 27.4266 358.1656 15.8466 354.5071 321.9605 81.7770 0.1559 338.4770 22.8583 358.9934 355.0950 55.5403 46.2188 10.3514 338.5443 353.4780 33.4603 276.0428 352.5272 21.6953 2.3162 358.1097 357.4349 359.2562 10.8211 356.9407 356.0951 350.3741 22.2434 1.0165 351.8140 0.1003 358.6838 19.7779 10.1347 356.0464 343.9975 336.4819 
-1.5768 88.7004 189.4861 2.2962 359.0047 176.6662 2.4018 359.6350 358.2549 358.6096 9.4898 358.3632 358.1630 342.3355 0.4051 5.5866 10.0215 0.1912 338.8157 358.3713 8.6968 299.2955 27.4253 358.1813 15.8993 354.4774 321.9604 81.7231 0.1294 338.4883 22.8525 359.0030 355.0732 55.2765 46.3405 10.6344 338.5497 353.4540 33.6421 275.8500 352.7748 21.6406 2.2853 358.0574 357.3872 359.2467 10.8550 356.9278 356.6225 350.4023 22.3871 0.9695 351.7843 0.1461 358.7169 19.7776 10.1007 356.1550 343.9035 336.4996 
-1.6094 88.7034 189.4592 2.2740 358.9505 176.6694 2.3668 359.6608 358.2788 358.6072 9.4408 358.3878 358.1743 342.3007 0.3763 5.5588 10.0842 0.1510 338.8192 358.3702 8.7100 299.3055 27.4621 358.2151 15.9267 354.4868 322.0147 81.7013 0.0510 338.5555 22.8603 358.9939 355.0519 55.0859 46.4613 10.8560 338.4787 353.3894 33.8237 275.7799 352.9792 21.5848 2.2468 357.9985 357.3234 359.2291 10.8961 356.9172 356.2589 350.2644 22.3793 0.9089 351.7397 0.1929 358.7588 19.8060 10.0730 356.1334 343.7965 336.4680 
-1.6449 88.7068 189.4316 2.2452 358.8832 176.6765 2.3217 359.6603 358.2948 358.6215 9.4213 358.4018 358.1608 342.2329 0.3456 5.5540 10.1866 0.1166 338.8093 358.3632 8.7122 299.3139 27.5009 358.2517 15.9562 354.4902 322.0573 81.8022 359.9544 338.6858 22.8655 358.9948 354.9929 54.7823 46.6319 11.2117 338.4197 353.3342 33.9174 275.8655 352.9607 21.5222 2.2041 357.9201 357.2326 359.1975 10.9512 356.9263 356.6392 350.2688 22.5074 0.8398 351.6838 0.2455 358.8003 19.8321 10.0698 356.2045 343.6531 336.4181 
-1.6812 88.7116 189.3996 2.2239 358.8252 176.6910 2.2768 359.6730 358.3089 358.6468 9.4049 358.4143 358.1724 342.1637 0.3024 5.5178 10.2608 0.1074 338.7962 358.3447 8.6968 299.3106 27.4339 358.3156 15.9277 354.4961 322.0275 81.8742 359.9181 338.7352 22.8596 359.0030 354.9866 54.6191 46.7491 11.4236 338.2699 353.2549 34.0209 276.1230 352.6490 21.4146 2.1653 357.8494 357.1546 359.1747 11.0146 356.9261 356.4907 350.1717 22.5085 0.7787 351.6422 0.3108 358.8076 19.8007 10.4027 356.3212 343.6115 336.1342 
-1.7196 88.7156 189.3634 2.2118 358.7697 176.7043 2.2475 359.6969 358.3206 358.6620 9.3787 358.4242 358.1714 342.0875 0.2692 5.5054 10.3388 0.0813 338.7882 358.3576 8.6863 299.3149 27.3137 358.3674 15.8244 354.5356 322.0094 81.9129 359.8702 338.6819 22.8585 358.9850 354.9605 54.3950 46.9087 11.6738 338.1470 353.1946 34.1594 276.2410 352.4552 21.3085 2.1363 357.7808 357.0867 359.1477 11.0899 356.9404 356.6605 350.1048 22.5790 0.7273 351.6050 0.3890 358.8428 19.8124 10.5089 356.6388 343.3184 335.9702 
-1.7690 88.7165 189.3282 2.1877 358.7054 176.7158 2.2326 359.7207 358.3170 358.6481 9.3440 358.4215 358.1467 342.0278 0.2580 5.5383 10.3733 0.0497 338.7894 358.3463 8.7144 299.3172 27.3075 358.4014 15.8376 354.5184 321.9771 81.8909 359.8360 338.7189 22.8570 358.9877 354.9297 54.1153 47.0739 11.9983 338.1478 353.1781 34.2704 276.1297 352.4526 21.2690 2.0870 357.6996 357.0094 359.1188 11.1662 356.9452 356.6805 349.9962 22.6498 0.6558 351.5466 0.4554 358.9005 19.9109 10.2822 356.8547 342.8844 336.0644 
-1.8171 88.7194 189.2963 2.1642 358.6197 176.7443 2.2046 359.7348 358.3093 358.6460 9.2913 358.4137 358.1011 341.9823 0.2306 5.5826 10.4025 0.0200 338.7889 358.3420 8.7311 299.3110 27.2613 358.4615 15.8096 354.5236 321.9633 81.9048 359.7806 338.7088 22.8696 358.9696 354.8692 53.7184 47.2395 12.4234 338.2007 353.1726 34.3924 276.0279 352.5159 21.2278 2.0457 357.5837 356.9230 359.0810 11.2634 356.9089 356.6479 349.8445 22.7665 0.5890 351.4655 0.5342 358.9613 20.0102 10.0647 357.0485 342.5359 336.2084 
-1.8632 88.7237 189.2613 2.1446 358.5378 176.7596 2.1487 359.7497 358.3259 358.6782 9.2513 358.4280 358.0190 341.9088 0.1808 5.6635 10.4712 359.9804 338.7756 358.3430 8.7303 299.3102 27.1797 358.5257 15.7522 354.5465 321.9527 81.9736 359.6956 338.6725 22.8687 358.9648 354.8362 53.4294 47.3072 12.7521 338.2644 353.1699 34.5548 275.9873 352.5304 21.2735 2.0100 357.4567 356.9386 359.0606 11.3986 356.8074 356.8036 349.7088 22.9019 0.5369 351.3913 0.6392 358.9996 20.0557 10.0384 357.2851 342.3018 336.1891 
-1.9117 88.7280 189.2218 2.1261 358.4519 176.7657 2.0958 359.7572 358.3490 358.6962 9.2238 358.4496 357.9749 341.8489 0.1361 5.7394 10.4942 359.9336 338.7704 358.3453 8.7525 299.3271 27.2619 358.5433 15.7955 354.5160 321.9846 81.9367 359.6448 338.6818 22.8340 358.9715 354.7960 53.2730 47.8408 13.2107 337.8415 353.0123 34.1345 276.0950 352.1794 21.1723 1.9728 357.3198 357.0136 359.0797 11.6375 356.6092 356.5193 349.4779 22.8425 0.4915 351.3175 0.7352 359.0232 20.0920 10.0035 357.1547 342.2696 336.2178 
